# xmcd
#
# Track frame offsets: 
#        150
#        28971
#        49767
#        75864
#        110910
#        132516
#        147024
#
# Disc length: 2284 seconds
#
# Revision: 1
# Processed by: cddbd v1.5.2PL0 Copyright (c) Steve Scherf et al.
# Submitted via: ExactAudioCopy v0.99pb5
#
DISCID=5d08ea07
DTITLE=Walter Bishop, Jr.'s 4th Cycle - Black Jazz Box CD13 Keeper Of 
DTITLE=My Soul
DYEAR=1973
DGENRE=Jazz
TTITLE0=Soul Village
TTITLE1=N'dugu's Prayer
TTITLE2=Summertime
TTITLE3=Those Who Chant
TTITLE4=Keeper Of My Soul
TTITLE5=Blue Bossa
TTITLE6=Sweet Rosa
EXTD=YEAR: 1973
EXTT0=
EXTT1=
EXTT2=
EXTT3=
EXTT4=
EXTT5=
EXTT6=
PLAYORDER=
